Coordinates
version=1
nRows=14
nColumns=40
inDegrees=yes

Units are S.I. units (second, meters, Newtons, ...)
Angles are in degrees.

endheader
time	pelvis_tilt	pelvis_list	pelvis_rotation	pelvis_tx	pelvis_ty	pelvis_tz	hip_flexion_r	hip_adduction_r	hip_rotation_r	knee_angle_r	knee_angle_r_beta	ankle_angle_r	subtalar_angle_r	mtp_angle_r	hip_flexion_l	hip_adduction_l	hip_rotation_l	knee_angle_l	knee_angle_l_beta	ankle_angle_l	subtalar_angle_l	mtp_angle_l	lumbar_extension	lumbar_bending	lumbar_rotation	arm_flex_r	arm_add_r	arm_rot_r	elbow_flex_r	pro_sup_r	wrist_flex_r	wrist_dev_r	arm_flex_l	arm_add_l	arm_rot_l	elbow_flex_l	pro_sup_l	wrist_flex_l	wrist_dev_l
     15.09250000	     -2.16615395	     -5.43771514	      1.69288196	      1.03463004	      0.91213507	      0.57445378	     14.24219580	      7.90539584	     -9.09266432	     29.21277445	     29.21277445	     18.57877271	    -11.88352108	      0.80400403	     23.53950225	    -17.43125649	     -0.08985322	     59.65408674	     59.65408674	     17.32564219	    -19.50253112	     21.94628529	    -10.74217306	      6.34011727	      1.25065649	     17.47312646	    -16.12869830	     -2.65293820	     38.68733384	     45.66617055	      0.00000000	      0.00000000	      6.78310102	    -10.15757058	      2.75836726	     41.36228264	     46.25669679	      0.00000000	      0.00000000
     15.11557143	     -1.86918228	     -5.34182855	      2.73677675	      1.03218124	      0.91056653	      0.57428742	     14.22860993	      7.84162624	     -9.30883081	     29.97302833	     29.97302833	     19.04152749	    -13.13579594	      0.88574796	     25.25129819	    -17.35534563	      0.50844609	     59.63326174	     59.63326174	     17.76298846	    -19.55686827	     22.18445640	    -11.09000141	      6.26496698	      1.11452663	     19.91044134	    -16.32507761	     -3.06128986	     39.96254791	     45.65690576	      0.00000000	      0.00000000	      4.25210848	     -9.98689827	      3.27836365	     39.19601778	     46.15524797	      0.00000000	      0.00000000
     15.13864286	     -1.54906919	     -5.19279526	      3.82608231	      1.02973916	      0.90966211	      0.57371745	     14.00402090	      7.72965069	     -9.54717112	     30.40621143	     30.40621143	     19.46151182	    -14.34446168	      1.11847876	     26.75015038	    -17.04049436	      1.09859763	     58.86503479	     58.86503479	     18.15321091	    -19.58258243	     22.53666484	    -11.37285720	      6.14322644	      1.05029792	     22.40770111	    -16.65354339	     -3.51987155	     41.17139782	     45.65266677	      0.00000000	      0.00000000	      1.97867251	     -9.77696971	      3.87147779	     36.90157366	     46.04519843	      0.00000000	      0.00000000
     15.16171429	     -1.34968743	     -4.96493453	      4.92192020	      1.02713013	      0.90929877	      0.57279106	     13.77550774	      7.48916108	     -9.88919030	     30.59090334	     30.59090334	     19.74184132	    -15.29749959	      1.44804137	     28.12327381	    -16.39107551	      1.75774966	     57.36387162	     57.36387162	     18.39519307	    -19.58284397	     22.71018677	    -11.59936084	      5.94198191	      1.07225983	     24.90868531	    -16.99405842	     -4.03436374	     42.43800077	     45.64825865	      0.00000000	      0.00000000	     -0.13903415	     -9.61276051	      4.49576809	     34.69982981	     45.93025154	      0.00000000	      0.00000000
     15.18478571	     -1.27661005	     -4.68008872	      6.01512890	      1.02438297	      0.90952889	      0.57151574	     13.51068928	      7.13317964	    -10.35563459	     30.48321368	     30.48321368	     19.95349503	    -15.90209719	      1.87652009	     29.31962491	    -15.45677297	      2.44436109	     55.16453134	     55.16453134	     18.29953516	    -19.56053097	     22.50535977	    -11.72488908	      5.68695337	      1.16956871	     27.33025559	    -17.37973649	     -4.68647096	     43.81902266	     45.64503318	      0.00000000	      0.00000000	     -2.07295325	     -9.48963231	      5.23018244	     32.62529537	     45.79768228	      0.00000000	      0.00000000
     15.20785714	     -1.30285210	     -4.32573667	      7.06208650	      1.02149418	      0.91032937	      0.56998113	     13.20949668	      6.66001967	    -10.88913037	     30.13905482	     30.13905482	     20.02442768	    -16.23164944	      2.25538169	     30.25500457	    -14.27408326	      3.12126667	     52.34321798	     52.34321798	     17.89410733	    -19.50802672	     22.04094863	    -11.80883588	      5.34397611	      1.32609914	     29.71964278	    -17.81247656	     -5.31748685	     45.33204773	     45.63449623	      0.00000000	      0.00000000	     -3.95408331	     -9.42065757	      5.86769127	     31.07905271	     45.67557757	      0.00000000	      0.00000000
     15.23092857	     -1.52110255	     -4.02499972	      8.06066034	      1.01853168	      0.91139252	      0.56820933	     13.00158999	      6.18403036	    -11.55115563	     29.60090667	     29.60090667	     20.09750563	    -16.32610064	      2.83551809	     31.01715818	    -13.04708210	      3.76841587	     48.91525284	     48.91525284	     16.49566512	    -19.42292495	     19.62123551	    -11.69048561	      5.08780852	      1.78268988	     31.68292667	    -18.33296586	     -6.89136930	     47.69463950	     45.63318314	      0.00000000	      0.00000000	     -5.44523155	     -9.48666484	      7.81383590	     29.40568428	     45.35733777	      0.00000000	      0.00000000
     15.25400000	     -1.70928224	     -3.61359073	      8.93805996	      1.01560448	      0.91307441	      0.56630570	     12.60223904	      5.61307978	    -12.09971541	     28.82807666	     28.82807666	     19.92448958	    -16.32612872	      3.05891003	     31.36337444	    -11.59071573	      4.54970518	     45.18795639	     45.18795639	     15.70338284	    -19.24048132	     19.60775713	    -11.64606334	      4.64516433	      2.05654809	     34.06603319	    -18.83921606	     -7.23409972	     49.14331118	     45.61006393	      0.00000000	      0.00000000	     -7.15058624	     -9.49413028	      8.18730999	     28.73561333	     45.27232924	      0.00000000	      0.00000000
     15.27707143	     -2.06095137	     -3.32936111	      9.74532578	      1.01265415	      0.91455515	      0.56426319	     12.30397193	      5.09521537	    -12.87706208	     27.90300864	     27.90300864	     19.59090146	    -16.02355275	      2.68091133	     31.53444321	    -10.35907397	      5.14947147	     41.02738089	     41.02738089	     13.41425355	    -18.94551063	     15.53754851	    -11.56156244	      4.38839658	      2.09905226	     36.23792100	    -19.01894583	     -8.00873105	     52.19991490	     45.54660375	      0.00000000	      0.00000000	     -9.09193496	     -9.68128886	     10.02236097	     28.70083146	     44.95288218	      0.00000000	      0.00000000
     15.30014286	     -2.32528302	     -2.99653202	     10.42388927	      1.00985980	      0.91644393	      0.56217597	     11.81906072	      4.59743772	    -13.50295106	     26.85767355	     26.85767355	     19.28556598	    -15.76948669	      2.79989213	     31.38141150	     -9.10777711	      5.83011880	     36.97660700	     36.97660700	     12.44745170	    -18.28890340	     15.29650281	    -11.50337390	      4.04226512	      2.36523832	     38.74295309	    -19.38742297	     -8.21440630	     53.78675205	     45.51316921	      0.00000000	      0.00000000	    -10.56167258	     -9.62636207	     10.53803051	     28.26132934	     44.85248717	      0.00000000	      0.00000000
     15.32321429	     -2.67035614	     -2.78079852	     10.99808866	      1.00714893	      0.91806750	      0.56008784	     11.41343699	      4.20016633	    -14.13684271	     25.79182599	     25.79182599	     18.97953565	    -15.25150139	      2.73024034	     31.17522190	     -8.17180300	      6.23393798	     33.04404729	     33.04404729	     11.50851867	    -16.92522424	     14.51830851	    -11.37141914	      3.77922072	      2.40229952	     41.20205326	    -19.47814482	     -8.33730121	     55.70931708	     45.46404254	      0.00000000	      0.00000000	    -11.99469398	     -9.50770363	     11.11990614	     27.96063044	     44.74153154	      0.00000000	      0.00000000
     15.34628571	     -2.95752362	     -2.66180181	     11.50340458	      1.00469446	      0.91942542	      0.55800895	     10.94524807	      3.91933286	    -14.79156863	     24.73164388	     24.73164388	     18.67465265	    -14.63896305	      2.43322405	     30.86389512	     -7.55034437	      6.26399693	     29.45020235	     29.45020235	     10.69576242	    -14.89715721	     13.18979227	    -11.29659857	      3.64339018	      2.42433661	     43.56530373	    -19.43449272	     -8.35364305	     57.90408095	     45.40151443	      0.00000000	      0.00000000	    -13.34104168	     -9.37817960	     11.84660235	     27.83900793	     44.61030027	      0.00000000	      0.00000000
     15.36935714	     -3.36598049	     -2.60170750	     11.90821247	      1.00234621	      0.92036407	      0.55592256	     10.68197922	      3.69618767	    -15.30884436	     23.80066945	     23.80066945	     18.42992235	    -14.19069875	      2.25249988	     30.61617364	     -7.07413143	      6.02600442	     26.20088293	     26.20088293	     10.22696890	    -12.67426895	     12.58370824	    -11.03727746	      3.50847976	      2.64131808	     45.72001347	    -19.46770187	     -8.32778739	     59.62233455	     45.35315915	      0.00000000	      0.00000000	    -14.34607239	     -9.18608099	     12.35486138	     27.72204212	     44.51894505	      0.00000000	      0.00000000
     15.39242857	     -3.59523929	     -2.66769875	     12.24269328	      1.00042191	      0.92097419	      0.55380603	     10.15605674	      3.64956194	    -15.91950224	     22.69538423	     22.69538423	     17.55341993	    -13.81257138	     -0.00110207	     30.10510396	     -6.86953924	      5.58804494	     23.17392808	     23.17392808	      8.34567301	    -10.82927815	      7.89466434	    -10.91153960	      3.54007645	      3.18253099	     47.25329556	    -19.82333516	     -8.27142810	     62.85494415	     45.30267554	      0.00000000	      0.00000000	    -15.22537262	    -10.03085484	     18.88130913	     28.70652774	     43.72895057	      0.00000000	      0.00000000
